<svg xmlns="http://www.w3.org/2000/svg" viewBox="0 0 64 64" role="img" aria-label="Gourangi Mayapurini favicon">
  <defs>
    <linearGradient id="bg" x1="0%" y1="0%" x2="100%" y2="100%">
      <stop offset="0%" stop-color="#14244e" />
      <stop offset="55%" stop-color="#0b132d" />
      <stop offset="100%" stop-color="#060915" />
    </linearGradient>
    <radialGradient id="glow" cx="50%" cy="28%" r="58%">
      <stop offset="0%" stop-color="#f8dd89" stop-opacity="0.95" />
      <stop offset="45%" stop-color="#f2c55d" stop-opacity="0.45" />
      <stop offset="100%" stop-color="#f2c55d" stop-opacity="0" />
    </radialGradient>
    <linearGradient id="gold" x1="0%" y1="0%" x2="100%" y2="100%">
      <stop offset="0%" stop-color="#fff1b5" />
      <stop offset="45%" stop-color="#f4cf6a" />
      <stop offset="100%" stop-color="#d79f30" />
    </linearGradient>
  </defs>

  <rect width="64" height="64" rx="16" fill="url(#bg)" />
  <circle cx="32" cy="23" r="18" fill="url(#glow)" />

  <g fill="#fff8de" opacity="0.95">
    <circle cx="14" cy="14" r="1.4" />
    <circle cx="50" cy="13" r="1.2" />
    <circle cx="54" cy="25" r="1.1" />
    <circle cx="20" cy="22" r="1" />
    <circle cx="12" cy="33" r="1.1" />
    <circle cx="46" cy="35" r="1" />
  </g>

  <path
    d="M32 16.5l1.5 4.3 4.5.1-3.6 2.6 1.3 4.2-3.7-2.5-3.7 2.5 1.3-4.2-3.6-2.6 4.5-.1z"
    fill="url(#gold)"
  />

  <path
    d="M21 44.5c3.2-5.6 7.2-8.4 11-8.4s7.8 2.8 11 8.4c-2.6-1.4-4.9-2.1-7-2.1-1.8 0-3 1-4 2.5-1-1.5-2.2-2.5-4-2.5-2.1 0-4.4.7-7 2.1z"
    fill="url(#gold)"
  />

  <text
    x="32"
    y="54"
    text-anchor="middle"
    font-family="Georgia, 'Times New Roman', serif"
    font-size="14"
    font-weight="700"
    letter-spacing="1.8"
    fill="#fff5d7"
  >
    GM
  </text>
</svg>
